# xmcd
# 
# Track frame offsets:
#     150
#     16640
#     32352
#     49302
#     68690
#     85095
#     102432
#     120462
#     138857
#     158570
#     174917
#     192472
#     210597
#     250745
# 
# Disc length: 3494
# 
# Revision: 3
# Processed by: cddbd v1.5.2PL0 Copyright (c) Steve Scherf et al.
# Submitted via: BonkEnc v1.0
# 
DISCID=a70da40e
DTITLE=Aqua - Aquarius
DYEAR=2000
DGENRE=Pop
TTITLE0=Cartoon Heroes
TTITLE1=Around The World
TTITLE2=Freaky Friday
TTITLE3=We Belong To The Sea
TTITLE4=An Apple A Day
TTITLE5=Halloween
TTITLE6=Good Guys
TTITLE7=Back From Mars
TTITLE8=Aquarius
TTITLE9=Cuba Libre
TTITLE10=Rumble Bees
TTITLE11=Goodbye To The Circus
TTITLE12=Cartoon Heroes ( Metro's That's All Folks Remix )
TTITLE13=Data
EXTD=YEAR: 2000 ID3G: 13
EXTT0=
EXTT1=
EXTT2=
EXTT3=
EXTT4=
EXTT5=
EXTT6=
EXTT7=
EXTT8=
EXTT9=
EXTT10=
EXTT11=
EXTT12=
EXTT13=
PLAYORDER=
